<?xml version="1.0" encoding="utf-8"?>
<!-- Generator: Adobe Illustrator 16.0.0, SVG Export Plug-In . SVG Version: 6.00 Build 0)  -->
<!DOCTYPE svg PUBLIC "-//W3C//DTD SVG 1.1//EN" "http://www.w3.org/Graphics/SVG/1.1/DTD/svg11.dtd">
<svg version="1.1" id="Ebene_2" xmlns="http://www.w3.org/2000/svg" xmlns:xlink="http://www.w3.org/1999/xlink" x="0px" y="0px"
	 width="64px" height="64px" viewBox="0 0 64 64" enable-background="new 0 0 64 64" xml:space="preserve">
<path fill="#D3DEEF" stroke="#6F98CB" stroke-miterlimit="10" d="M30.473,26.126l0.929-4.979l-4.182-3.651v-4.249l4.182,2.854
	l0.332-0.996l-5.311-5.045l-0.398-4.514l6.705,5.377l0.332-1.261l-3.982-4.116l0.464-1.726l1.792-0.398l2.722,2.522l0.398-2.522
	l1.792-0.996l1.594,1.261l-0.465,2.854l3.518-1.66l1.992,1.062l-0.266,1.66l-5.576,3.12l-0.066,0.996l7.966-2.854l-1.461,4.116
	l-7.201,3.053l-0.021,0.8l5.497-1.331l-1.394,4.249l-4.581,1.792l-0.995,5.51l5.576-1.593l1.062-4.58l3.519-2.655v5.509l0.863-0.398
	l1.593-7.302l3.519-2.788l-1.793,9.028l1.793-0.598l1.526-5.576l1.925-0.929l1.395,1.859l-0.664,2.722l2.39-0.332l1.792,1.062v2.39
	l-1.991,0.797c0,0,2.257,1.659,2.257,1.858s0.332,2.39,0.332,2.39l-2.323,1.063l-5.576-3.917l-1.526,0.598l7.966,5.908l-4.779,0.616
	l-6.705-4.931l-1.261,0.597l4.713,3.917l-4.05,0.498l-4.049-2.622l-5.377,1.925l4.314,3.717l5.377-1.46l3.319,2.323l-5.111,1.858
	l1.057,1.004l6.909-2.198l4.779,1.925l-8.961,3.12l1.062,0.863l5.908-1.328l1.792,1.063l-0.332,2.39l-4.115,0.796l2.19,1.793v2.058
	l-2.257,0.863l-1.991-1.461l-0.133,3.452l-1.926,1.327l-1.925-1.261l0.199-6.24l-1.194-0.995l-0.664,9.227l-3.253-3.982l0.664-7.833
	l-0.664-0.465l-1.46,5.311l-2.456-3.253l0.397-5.111l-4.248-3.718l-1.261,5.709l3.651,3.386l0.664,4.779L32,45.311l0.032,1.726
	l5.677,4.979l0.929,5.377l-7.634-6.837l0.266,1.858l4.713,4.979l-0.796,2.058h-2.722l-2.655-3.253l-0.398,3.253l-2.058,0.93
	l-1.328-1.527l0.266-2.456l-3.319,1.461l-2.058-1.195l0.465-2.124l5.178-2.854c0,0,0.531-1.858,0.266-1.858s-8.763,3.85-8.763,3.85
	l1.726-4.381l7.501-3.519l0.398-1.327l-5.443,1.858l1.261-3.982l4.514-1.992l1.195-5.442l-5.377,1.593l-0.93,4.381l-3.85,2.854
	l0.332-5.244l-0.929,0.199l-1.66,7.169l-4.116,3.187l1.46-8.63l-1.46-0.133l-1.394,6.041l-1.925,0.73l-1.527-1.991l0.597-3.187
	l-2.788,0.465L4.12,40.929v-2.39l2.39-0.465l-2.39-2.456l0.266-2.655l2.19-0.199l4.846,2.987l0.531-0.929L5.58,29.843l5.111-0.332
	l6.173,4.381l0.465-0.598l-3.85-3.983l4.779-0.398l3.651,3.352l5.643-2.157l-4.315-3.585l-4.846,1.195l-3.983-1.858l5.443-2.39
	l-0.929-0.797l-7.767,2.257l-4.912-1.792l9.161-3.385l-0.929-0.93l-6.373,1.195l-1.46-1.593l0.73-1.593l3.85-0.996l-2.257-1.991
	l0.465-1.792l2.722-0.464l1.526,2.323l0.332-4.779l1.593-0.598l1.859,0.929l-0.465,6.705l1.062,0.598l1.394-8.829l2.854,3.585
	l-1.062,7.767l1.195,1.195l1.062-5.709l2.589,2.987l-0.465,5.178L30.473,26.126z"/>
<path fill="#BCCBE6" stroke="#70BEE6" stroke-miterlimit="10" d="M2.893,11.456"/>
</svg>
