<?xml version="1.0" encoding="utf-8"?>
<!-- Generator: Adobe Illustrator 17.1.0, SVG Export Plug-In . SVG Version: 6.00 Build 0)  -->
<!DOCTYPE svg PUBLIC "-//W3C//DTD SVG 1.1//EN" "http://www.w3.org/Graphics/SVG/1.1/DTD/svg11.dtd">
<svg version="1.1" xmlns="http://www.w3.org/2000/svg" xmlns:xlink="http://www.w3.org/1999/xlink" x="0px" y="0px"
	 viewBox="0 0 64 64" enable-background="new 0 0 64 64" xml:space="preserve">
<g id="Ebene_1" display="none">
</g>
<g id="Ebene_2">
	<path fill="#4DB59A" stroke="#028484" stroke-width="2" stroke-miterlimit="10" d="M29.4,11c-5.8-4.8-16.1,7.2-19.5,12.5
		c3.3,0.6,8.5-1.4,11.3-2.8"/>
	<path fill="#4DB59A" stroke="#028484" stroke-width="2" stroke-miterlimit="10" d="M51.1,3.4c-6.6-1-10.6,0.1-12.2,0.8
		c-1.3,0.6-2.1,0.7-6.3,3.7C23.8,14.2,18.7,21,16.3,31.2c-1.1,4.6-1.4,5.4-2.2,9.5c-0.5,2.6-0.7,3.5-1.1,6.8
		c-5.2-0.7-8.1-0.5-11.2,0.8C4.6,55,18.1,62.3,25.2,62.7c-0.9-3.5-2.4-7-4.6-10.2c5.1-2.2,10.6-4.9,15.5-8.9c2.4-1.9,7.3-5.7,10.6-9
		c4-4.1,6.7-9,8.7-14.3c1.7-4.5,3.7-13.1,3.3-14.2C57.2,2,55,4.1,51.1,3.4"/>
	<path fill="none" stroke="#028484" stroke-miterlimit="10" d="M58.5,8.3c-1.9,1.9-2.4,3.1-4.3,5.2c-2.2,2.2-5.5,5.4-6.6,2.7"/>
	<ellipse fill="#018382" stroke="#028484" stroke-miterlimit="10" cx="43.3" cy="10.1" rx="2.6" ry="2.7"/>
	<path fill="none" stroke="#028484" stroke-miterlimit="10" d="M5.4,52.4c0.9-0.8,4.7-2.2,5.2-2.6"/>
	<path fill="none" stroke="#028484" stroke-miterlimit="10" d="M8,55.1c1.3-1.3,3.1-2.7,4-3.6"/>
	<path fill="none" stroke="#028484" stroke-miterlimit="10" d="M11.7,57.2c0.5-0.9,1.7-2.8,2.2-3.6"/>
	<path fill="none" stroke="#028484" stroke-miterlimit="10" d="M15.5,59.2c0.2-1.2,0.4-2.2,1-4.2"/>
	<path fill="none" stroke="#028484" stroke-miterlimit="10" d="M19.2,61.2c0.2-0.9-0.1-4,0-4.9"/>
	<path fill="#4DB59A" stroke="#028484" stroke-width="2" stroke-miterlimit="10" d="M31.4,33.9c2.8,5.9,12.5,11.4,17.8,7.7
		c-1.7-8.7-8.6-10.2-9.8-12.5"/>
	<line fill="none" stroke="#028484" stroke-miterlimit="10" x1="36.6" y1="13.2" x2="41.8" y2="19.5"/>
	<line fill="none" stroke="#028484" stroke-miterlimit="10" x1="35.8" y1="14.5" x2="40.3" y2="20.7"/>
	<line fill="none" stroke="#028484" stroke-miterlimit="10" x1="38.4" y1="12.8" x2="42.5" y2="17.6"/>
</g>
</svg>
