<?xml version="1.0" encoding="utf-8"?>
<!-- Generator: Adobe Illustrator 17.1.0, SVG Export Plug-In . SVG Version: 6.00 Build 0)  -->
<!DOCTYPE svg PUBLIC "-//W3C//DTD SVG 1.1//EN" "http://www.w3.org/Graphics/SVG/1.1/DTD/svg11.dtd">
<svg version="1.1" id="Ebene_2" xmlns="http://www.w3.org/2000/svg" xmlns:xlink="http://www.w3.org/1999/xlink" x="0px" y="0px"
	 viewBox="0 0 64 64" enable-background="new 0 0 64 64" xml:space="preserve">
<path fill="#C1B7A9" stroke="#847770" stroke-miterlimit="10" d="M54.995,26.532c0.319,5.186-7.517,8.437-9.912,8.957
	c2.152,0.252,4.084,0.762,6.75,1.834c0.25,3-0.604,3.555-3.243,5.176c-3.604,2.215-7.523,4.525-10.006,3.002
	c-2.089-1.281-8.688-14.336-10.554-18.549c-0.934-2.106-3.611-8.9-3.611-8.9l0.519-0.504l0.359-0.75l0.202-0.615l-0.114-0.828
	l-0.275-0.713c0,0,1.801-0.686,4.172-1.547c2.5,1.734,4.101-0.222,2.578-3.5c-0.827-1.779-5.372-4.331-4.526,0.2
	c-1.801,0.897-1.758,0.893-3.615,1.332c-0.202-0.412-0.562-0.717-1.109-1.062c-0.716-0.452-1.906-0.25-1.906-0.25
	s-0.347-0.814,0.125-1.297c1.178-1.206,4.253-2.762,3.826-4.248c-0.863-3-8.202-3.845-11.32-2.859C9.118,2.741,8.4,7.338,8.5,7.988
	c0.33,2.158,4.43,1.868,6.375,2.153c0.63,0.093,1.062,1.078,1.062,1.078c0,0-0.526,0.442-1.062,1.781
	c-0.496,1.238,0.049,2.091,0.049,2.091l-3.674,2.147c0,0-2.327-0.308-3.176-0.182c-1.373,0.202-0.196,3.544,0.842,4.515
	c2.433,2.274,2.932-0.134,3.917-1.583l3.229-1.691l0.297,0.438l0.688,0.719L18.266,20l1.078,0.062c0,0,2.226,3.395,3.74,8.592
	c0.48,1.647,4.543,18.516,3.5,21.512c-1.344,3.859-7.115,4.04-9.583,4.321c-2.965,0.338-4.165-1.914-5.416-2.834
	c1.024-1.521,2.375-3.291,3.541-5.791C9.292,47.529,4.87,44.631,1.917,41.488c0.05,3.58,0.041,15.125,1.708,20.125
	c0.185-1.102,2.809-4.621,2.809-4.621s5.015,2.58,6.648,3.311c3.951,1.914,8.738,2.877,13.397,2.646
	c3.134-0.172,3.914-0.531,6.854-0.863c1.528-0.17,3.129,0.938,4.469,0.195c0.708-0.486,1.596-2.25,3.094-3.109l-0.024-0.043
	c2.215-1.146,2.704-1.344,3.941-2.027c1.733-1.008,6.302-4.82,9.437-9.191c2.539-3.541,3.853-7.686,4.218-9.123
	c0.374,0.113,2.303,0.592,4.151,1.713C61.138,37.092,57.398,29.203,54.995,26.532z M11.328,6.597c0.202-1.043,0.969-2,1.812-1.922
	l2.047,0.484c1.651,0.363,2.626-1.389,3.688-1.91c1.603-0.789,3.453,2.178,1.906,3.062c-0.613,0.338-2.946,0.25-3.594,0.347
	c-0.887,0.133-1.932,0.933-2.641,1.422C13.45,8.849,10.941,8.598,11.328,6.597z"/>
</svg>
