<?xml version="1.0" encoding="utf-8"?>
<!-- Generator: Adobe Illustrator 17.1.0, SVG Export Plug-In . SVG Version: 6.00 Build 0)  -->
<!DOCTYPE svg PUBLIC "-//W3C//DTD SVG 1.1//EN" "http://www.w3.org/Graphics/SVG/1.1/DTD/svg11.dtd">
<svg version="1.1" id="Ebene_1" xmlns="http://www.w3.org/2000/svg" xmlns:xlink="http://www.w3.org/1999/xlink" x="0px" y="0px"
	 viewBox="0 0 64 64" enable-background="new 0 0 64 64" xml:space="preserve">
<path fill="#AA5F9E" stroke="#8684BA" stroke-width="2" stroke-miterlimit="10" d="M62.1,32.2c0,16.2-13.3,29.4-29.6,29.4
	c-17.8,0-29.6-14.7-29.6-29.4C2.9,16,16.2,2.8,32.5,2.8C48.9,2.8,62.1,16,62.1,32.2z"/>
<path fill="#E74851" stroke="#8784BA" stroke-width="2" stroke-miterlimit="10" d="M47.9,26.4c-3.1,3.6-5.7,6.2-8.6,8.8
	c-5.2,4.6-10.1,9-15.9,12.7c-2.5,1.5-4.8,3-7.4,4.2c-3.1,1.5-2.4,2.1-5-0.3C6.8,48,4.1,41.8,3.3,36.3c-0.9-6-1-7.8,4.4-10.8
	c5.3-2.9,10.7-4.4,16.6-5.5c4.8-0.9,10.1-1.5,14.8-0.2c2.6,0.7,5.7,2.1,7.6,2.9"/>
<path fill="#90C15F" stroke="#8684BA" stroke-miterlimit="10" d="M51,27.4c2.4,5,3.6,24.6-1,28.1c-7.5,5.7-16.3,6.8-24.7,4.8
	c-3.7-0.9-9.5-4.1-12.4-6.8c8.4-4.5,16.7-8.9,23.4-15.7c3.1-3.2,8.5-8.6,11.4-11.6"/>
<path fill="#64C2CC" stroke="#8684BA" stroke-miterlimit="10" d="M53.2,24.7c2.4,1.5,8.4,3.4,9,6.6c0.6,3.5-0.9,11.6-2.8,14.4
	c-3.7,5.3-6.5,8.5-8.2,9.4c0.7-1.3,2.1-6.7,2-10.3c-0.1-4.7-0.3-7.6-0.7-11.3c-0.1-1.3-0.6-3.9-1.3-7.8"/>
<path fill="#F4E347" stroke="#8684BA" stroke-miterlimit="10" d="M49.9,21.2c-0.1-2.6-3.2-5.3-6.1-7.9c-3.5-3.2-8.8-7.1-13.1-8.9
	c-9.3-4.1-21,6.3-25.2,14.7c-1.2,2.5-2.5,6.5-2.6,9.4c3.4-1.8,3.9-2.4,6.7-4c2.1-1.1,4.7-2.1,7.1-2.6c3.8-1.1,7.5-2.2,13.4-2.6
	c4.9-0.3,5.8-0.6,12.5,1.6c3.6,1.2,6.8,3.2,9.2,4.8"/>
<path fill="#6270AE" stroke="#8684BA" stroke-miterlimit="10" d="M51.5,20.9c0.2-2.1,2.7-6.2,3.1-8.3c-2.7-2.7-7-5.9-10.2-7.3
	c-10-4.4-13.3-2.6-17.1-1.8c7.8,2.1,19.8,11,23,17.5"/>
<ellipse fill="#8684BA" stroke="#8684BA" stroke-miterlimit="10" cx="50.4" cy="23.5" rx="3.6" ry="3.8"/>
<ellipse fill="#51559D" stroke="#8684BA" stroke-miterlimit="10" cx="51.1" cy="23.5" rx="2.3" ry="2.9"/>
</svg>
